<mxfile host="app.diagrams.net" modified="2024-04-04T12:28:18.358Z" agent="Mozilla/5.0 (Windows NT 10.0; Win64; x64) AppleWebKit/537.36 (KHTML, like Gecko) Chrome/123.0.0.0 Safari/537.36" etag="A2OePFGggEakmq2UbmGD" version="24.2.2" type="device">
  <diagram name="Página-1" id="1dl1u8hrIKEG6EcJ0dUU">
    <mxGraphModel dx="636" dy="961" grid="1" gridSize="10" guides="1" tooltips="1" connect="1" arrows="1" fold="1" page="1" pageScale="1" pageWidth="827" pageHeight="1169" math="0" shadow="0">
      <root>
        <mxCell id="0" />
        <mxCell id="1" parent="0" />
        <mxCell id="O8YMF89y0L08HN2UX6FN-1" value="Clientes" style="shape=umlActor;verticalLabelPosition=bottom;verticalAlign=top;html=1;" vertex="1" parent="1">
          <mxGeometry x="170" y="410" width="30" height="60" as="geometry" />
        </mxCell>
        <mxCell id="O8YMF89y0L08HN2UX6FN-2" value="Agencia&amp;nbsp;&lt;div&gt;de Viajes&lt;/div&gt;" style="shape=umlActor;verticalLabelPosition=bottom;verticalAlign=top;html=1;" vertex="1" parent="1">
          <mxGeometry x="640" y="400" width="30" height="60" as="geometry" />
        </mxCell>
        <mxCell id="O8YMF89y0L08HN2UX6FN-3" value="Iniciar sesión&lt;div&gt;CU-01&lt;/div&gt;" style="ellipse;whiteSpace=wrap;html=1;" vertex="1" parent="1">
          <mxGeometry x="344" y="220" width="140" height="70" as="geometry" />
        </mxCell>
        <mxCell id="O8YMF89y0L08HN2UX6FN-4" value="Crear vuelo&lt;div&gt;CU-02&lt;/div&gt;" style="ellipse;whiteSpace=wrap;html=1;" vertex="1" parent="1">
          <mxGeometry x="344" y="360" width="140" height="70" as="geometry" />
        </mxCell>
        <mxCell id="O8YMF89y0L08HN2UX6FN-5" value="Devolver billetes&lt;div&gt;CU-03&lt;/div&gt;" style="ellipse;whiteSpace=wrap;html=1;" vertex="1" parent="1">
          <mxGeometry x="344" y="490" width="140" height="70" as="geometry" />
        </mxCell>
        <mxCell id="O8YMF89y0L08HN2UX6FN-6" value="Comprar billetes" style="ellipse;whiteSpace=wrap;html=1;" vertex="1" parent="1">
          <mxGeometry x="344" y="630" width="140" height="70" as="geometry" />
        </mxCell>
        <mxCell id="O8YMF89y0L08HN2UX6FN-9" value="" style="endArrow=none;html=1;rounded=0;entryX=0;entryY=0.5;entryDx=0;entryDy=0;" edge="1" parent="1" source="O8YMF89y0L08HN2UX6FN-1" target="O8YMF89y0L08HN2UX6FN-3">
          <mxGeometry width="50" height="50" relative="1" as="geometry">
            <mxPoint x="220" y="420" as="sourcePoint" />
            <mxPoint x="270" y="370" as="targetPoint" />
          </mxGeometry>
        </mxCell>
        <mxCell id="O8YMF89y0L08HN2UX6FN-10" value="" style="endArrow=none;html=1;rounded=0;entryX=0;entryY=0.5;entryDx=0;entryDy=0;" edge="1" parent="1" source="O8YMF89y0L08HN2UX6FN-1" target="O8YMF89y0L08HN2UX6FN-6">
          <mxGeometry width="50" height="50" relative="1" as="geometry">
            <mxPoint x="230" y="440" as="sourcePoint" />
            <mxPoint x="240" y="550" as="targetPoint" />
          </mxGeometry>
        </mxCell>
        <mxCell id="O8YMF89y0L08HN2UX6FN-11" value="" style="endArrow=none;html=1;rounded=0;exitX=1;exitY=0.5;exitDx=0;exitDy=0;" edge="1" parent="1" source="O8YMF89y0L08HN2UX6FN-4" target="O8YMF89y0L08HN2UX6FN-2">
          <mxGeometry width="50" height="50" relative="1" as="geometry">
            <mxPoint x="540" y="370" as="sourcePoint" />
            <mxPoint x="590" y="320" as="targetPoint" />
          </mxGeometry>
        </mxCell>
        <mxCell id="O8YMF89y0L08HN2UX6FN-12" value="" style="endArrow=none;html=1;rounded=0;exitX=1;exitY=0.5;exitDx=0;exitDy=0;" edge="1" parent="1" source="O8YMF89y0L08HN2UX6FN-5" target="O8YMF89y0L08HN2UX6FN-2">
          <mxGeometry width="50" height="50" relative="1" as="geometry">
            <mxPoint x="510" y="590" as="sourcePoint" />
            <mxPoint x="560" y="540" as="targetPoint" />
          </mxGeometry>
        </mxCell>
        <mxCell id="O8YMF89y0L08HN2UX6FN-13" value="" style="endArrow=none;html=1;rounded=0;exitX=1;exitY=0.5;exitDx=0;exitDy=0;" edge="1" parent="1" source="O8YMF89y0L08HN2UX6FN-3" target="O8YMF89y0L08HN2UX6FN-2">
          <mxGeometry width="50" height="50" relative="1" as="geometry">
            <mxPoint x="550" y="330" as="sourcePoint" />
            <mxPoint x="600" y="280" as="targetPoint" />
          </mxGeometry>
        </mxCell>
      </root>
    </mxGraphModel>
  </diagram>
</mxfile>
